<?xml version="1.0" standalone="no"?>
<!DOCTYPE svg PUBLIC "-//W3C//DTD SVG 20010904//EN"
 "http://www.w3.org/TR/2001/REC-SVG-20010904/DTD/svg10.dtd">
<svg version="1.0" xmlns="http://www.w3.org/2000/svg"
 width="800.000000pt" height="800.000000pt" viewBox="0 0 800.000000 800.000000"
 preserveAspectRatio="xMidYMid meet">
<metadata>
Created by potrace 1.16, written by Peter Selinger 2001-2019
</metadata>
<g transform="translate(0.000000,800.000000) scale(0.100000,-0.100000)"
fill="#000000" stroke="none">
<path d="M3835 6809 c-722 -48 -1408 -315 -1970 -765 -126 -101 -358 -329
-462 -454 -593 -712 -850 -1625 -712 -2527 53 -351 187 -745 352 -1040 49 -87
60 -100 78 -96 16 5 20 2 17 -8 -3 -8 -11 -13 -18 -11 -23 5 116 -204 239
-358 92 -116 245 -276 280 -293 14 -7 24 -16 23 -21 -14 -32 348 -320 570
-455 l38 -23 -29 62 c-16 34 -48 87 -70 118 -22 32 -51 71 -63 89 -13 18 -45
61 -71 97 -27 36 -62 101 -79 143 -16 43 -42 103 -58 133 -16 30 -36 80 -45
110 -9 30 -30 78 -47 105 -36 59 -78 176 -78 218 0 48 154 269 274 392 127
132 144 135 200 37 4 -7 -13 2 -38 19 -25 18 -48 30 -51 27 -3 -3 12 -17 34
-32 63 -44 137 -173 191 -335 48 -142 62 -224 67 -403 4 -123 9 -171 19 -179
17 -14 22 -2 27 66 2 28 3 12 2 -35 -4 -118 -23 -246 -46 -303 -10 -26 -28
-68 -38 -95 -48 -116 -65 -168 -65 -199 -1 -18 -4 -33 -8 -33 -30 0 13 -29
150 -98 388 -198 731 -305 1182 -368 160 -23 679 -26 840 -6 940 119 1738 552
2305 1251 876 1080 952 2586 190 3746 -110 168 -150 214 -176 208 -19 -5 -21
-3 -15 23 6 26 -3 40 -87 134 -620 695 -1458 1100 -2402 1160 -178 11 -273 11
-450 -1z m260 -475 c28 -8 82 -17 120 -19 88 -4 119 -12 173 -42 24 -13 65
-26 90 -29 69 -9 242 -104 429 -236 18 -13 38 -33 44 -45 7 -13 19 -23 26 -23
21 0 67 -55 123 -147 28 -45 73 -104 101 -130 71 -68 119 -132 119 -159 0 -13
9 -32 20 -42 11 -10 32 -47 46 -83 14 -35 38 -88 53 -119 26 -55 33 -124 16
-177 -7 -21 -9 -21 -28 -8 -34 24 -96 18 -152 -14 -62 -35 -169 -147 -219
-229 l-37 -60 -42 23 c-99 55 -241 56 -712 5 -148 -16 -358 -37 -465 -45 -107
-9 -238 -23 -290 -31 -296 -49 -454 -167 -454 -339 1 -78 28 -139 93 -208 92
-97 219 -139 350 -117 145 24 242 121 276 276 21 94 17 225 -9 269 -9 17 -15
22 -12 13 30 -99 31 -157 4 -268 -26 -107 -92 -190 -183 -232 -76 -34 -199
-32 -279 5 -82 38 -136 85 -171 148 -83 152 7 294 229 364 111 36 221 53 456
70 113 8 315 26 450 40 135 14 259 26 276 28 31 3 31 2 -43 -77 -101 -110
-138 -185 -138 -286 0 -64 4 -82 27 -121 97 -165 331 -217 515 -114 l43 23 40
-45 c22 -25 40 -41 40 -34 0 6 -16 28 -35 50 -33 37 -34 39 -17 55 10 9 29 16
42 16 18 0 21 3 13 11 -9 9 -4 21 18 49 87 108 93 307 14 424 -29 43 -28 47
40 136 61 80 138 147 198 175 97 46 135 26 144 -74 5 -56 4 -64 -10 -58 -13 5
-15 2 -7 -18 11 -29 -11 -102 -30 -97 -8 2 -10 -3 -6 -14 30 -79 29 -108 -9
-174 -18 -31 -19 -67 -2 -101 9 -15 11 -33 6 -47 -7 -18 -12 -20 -41 -11 -68
19 -150 5 -162 -28 -4 -10 -1 -11 14 -3 24 13 45 13 93 -1 132 -36 164 -188
79 -369 -22 -47 -65 -154 -96 -239 -31 -85 -68 -169 -82 -188 -23 -30 -31 -34
-57 -29 -17 4 -34 10 -38 14 -4 4 4 49 17 101 36 140 50 292 37 391 -6 45 -15
86 -19 90 -5 5 -9 -48 -10 -118 -1 -203 -50 -382 -173 -632 -57 -116 -76 -145
-124 -188 -31 -28 -68 -59 -82 -68 -15 -10 -31 -27 -35 -38 -9 -21 -9 -20 -9
2 -2 47 -46 17 -71 -48 -20 -53 -97 -158 -164 -225 -69 -68 -115 -89 -241
-106 -107 -14 -196 -4 -293 35 -157 63 -247 135 -316 250 -38 63 -45 67 -22
13 22 -54 -243 214 -299 301 -91 143 -159 325 -191 512 -9 52 -18 97 -21 100
-9 9 9 -155 28 -252 10 -53 33 -136 50 -184 l31 -87 -29 -23 c-46 -38 -58 -32
-120 65 -20 31 -73 98 -119 149 -45 51 -95 114 -110 140 -15 26 -40 65 -56 86
-26 36 -28 46 -28 128 0 104 14 170 42 195 15 13 36 18 78 18 32 0 56 3 54 7
-9 15 -79 30 -116 25 -51 -7 -70 8 -55 41 9 20 8 27 -7 37 -16 12 -17 22 -11
77 4 35 15 82 25 106 11 23 17 42 15 42 -13 0 -56 -106 -66 -163 -11 -60 -29
-83 -29 -37 0 10 -8 23 -17 29 -16 9 -15 15 20 79 43 81 46 94 13 63 l-23 -22
14 53 c8 29 12 68 10 86 -1 18 2 32 8 32 21 -1 124 -48 245 -113 132 -70 130
-56 -3 21 l-79 46 49 14 c26 8 43 17 37 19 -6 2 -31 -3 -54 -11 -41 -14 -44
-13 -99 14 -31 16 -68 32 -83 35 -34 9 -35 25 -8 120 26 92 25 105 -4 30 -30
-79 -39 -48 -19 71 7 49 16 130 18 179 5 108 41 237 94 340 12 21 21 47 21 57
0 28 95 212 158 308 140 212 363 385 610 474 40 14 90 26 111 26 21 0 60 7 87
15 60 18 107 20 84 4 -12 -8 -9 -9 10 -4 14 4 35 9 48 12 12 3 22 10 22 15 0
6 11 8 25 6 14 -3 28 -1 31 3 8 14 64 10 119 -7z m850 -1581 c51 -27 69 -47
96 -108 30 -68 31 -181 2 -246 -28 -62 -80 -119 -108 -119 -15 0 -22 -6 -21
-17 1 -22 -90 -68 -164 -84 -109 -23 -219 11 -294 91 -105 112 -84 230 77 425
l72 87 150 -4 c128 -3 156 -7 190 -25z m138 -1402 c60 -46 62 -48 48 -70 -7
-11 -13 -6 -26 19 -34 66 -97 93 -108 48 -10 -39 -26 -179 -32 -273 -3 -49
-11 -123 -17 -162 -11 -65 -14 -73 -34 -73 -20 0 -23 -8 -34 -96 l-12 -96 -83
-127 c-93 -144 -220 -296 -352 -421 l-89 -85 -54 -209 c-49 -187 -56 -204 -62
-170 -4 22 -4 53 -2 70 7 40 -10 79 -85 198 -33 53 -61 106 -61 118 0 14 -5
18 -15 14 -27 -10 -259 177 -407 327 -135 136 -138 140 -147 195 -5 32 -6 102
-3 157 l7 100 31 -85 c93 -256 172 -409 231 -447 20 -14 21 -13 16 8 -4 13
-46 100 -94 194 -48 93 -116 235 -151 315 -36 80 -70 156 -76 170 -12 25 -12
25 -7 -5 3 -18 -13 5 -40 58 -43 83 -54 117 -37 117 4 0 34 -23 67 -50 33 -28
82 -62 110 -76 34 -18 64 -46 92 -85 79 -109 258 -212 397 -229 140 -17 309
12 389 67 50 34 180 195 217 269 27 53 57 79 144 124 65 33 123 99 162 181 29
63 40 78 48 67 6 -8 37 -33 69 -57z m852 -628 c14 -21 25 -32 25 -25 0 7 36
-19 80 -57 102 -88 156 -124 305 -199 137 -70 183 -105 275 -210 36 -41 84
-88 107 -105 77 -55 79 -63 42 -175 -95 -287 -161 -426 -251 -528 -34 -38
-103 -121 -153 -184 -51 -64 -105 -124 -121 -134 -16 -10 -39 -30 -51 -44
l-22 -26 -5 25 c-2 13 -9 89 -15 169 -6 80 -18 167 -27 193 -12 35 -13 51 -5
61 8 10 -2 38 -42 117 -122 239 -169 483 -181 939 -4 146 -1 220 10 220 2 0
15 -17 29 -37z m-1105 -324 c-24 -165 -49 -267 -103 -425 -97 -283 -104 -296
-187 -379 l-75 -75 0 113 c-1 118 -26 309 -50 376 l-14 40 55 42 c85 65 286
280 340 363 27 41 50 73 51 72 1 0 -7 -58 -17 -127z m-968 -273 c63 -41 128
-80 144 -87 16 -7 30 -14 31 -14 2 -1 -6 -25 -17 -53 -31 -80 -45 -237 -31
-344 12 -96 48 -207 77 -239 19 -21 34 -18 16 3 -18 22 -51 155 -58 232 -7 80
7 209 33 299 l17 61 58 -119 c32 -65 58 -125 58 -134 0 -10 5 -22 11 -28 6 -6
14 -140 20 -364 9 -337 19 -444 40 -407 8 14 -2 259 -20 498 l-8 115 67 205
c37 113 71 224 75 248 4 23 10 42 15 42 21 0 56 -344 45 -445 -3 -33 -17 -87
-31 -121 -45 -114 -26 -112 81 5 44 49 81 87 83 86 1 -1 -21 -53 -49 -116 -88
-197 -250 -591 -246 -596 3 -2 17 20 31 49 14 29 23 42 19 28 -23 -91 -23 -92
3 -86 18 5 22 3 18 -8 -7 -18 -90 -30 -144 -21 -35 6 -40 10 -35 26 4 11 1 27
-6 35 -10 13 -8 13 14 5 39 -15 40 0 3 52 -32 45 -146 295 -201 440 -23 63
-24 67 -6 57 11 -5 23 -15 26 -20 3 -6 11 -10 18 -10 6 0 -10 22 -36 48 -26
26 -47 52 -47 58 0 5 -45 100 -100 212 -54 111 -116 253 -136 315 -33 100 -55
159 -114 307 l-18 45 93 -92 c57 -55 138 -121 207 -167z"/>
<path d="M4745 5093 c-105 -26 -355 -123 -355 -139 0 -8 138 5 245 22 79 14
202 19 275 11 23 -2 25 1 24 37 -2 57 -29 76 -108 75 -33 -1 -70 -3 -81 -6z"/>
<path d="M3243 4905 c-118 -33 -243 -116 -243 -161 0 -56 43 -97 86 -80 12 4
15 15 12 37 -4 28 0 34 39 59 93 60 169 83 288 88 61 2 114 8 119 12 4 5 -11
18 -35 31 -56 28 -190 36 -266 14z"/>
<path d="M3517 4416 c-21 -8 -53 -24 -73 -37 -54 -37 -136 -169 -105 -169 6 0
36 23 67 51 52 47 161 109 192 109 7 0 31 -9 54 -21 l41 -21 -22 31 c-30 41
-69 71 -95 71 -11 -1 -38 -7 -59 -14z"/>
<path d="M5191 4246 l-23 -25 43 -3 44 -3 -2 -40 c-1 -22 -4 -78 -8 -125 -7
-93 2 -123 29 -101 52 44 82 255 42 300 -28 31 -95 29 -125 -3z"/>
<path d="M2883 3991 c-35 -29 -44 -65 -33 -117 20 -87 94 -205 120 -189 20 12
9 55 -35 139 -49 94 -53 112 -30 156 18 34 10 38 -22 11z"/>
<path d="M4277 3676 c-26 -7 -53 -20 -60 -29 -13 -18 -77 -47 -102 -47 -8 0
-15 7 -15 15 0 23 -41 44 -101 51 -56 6 -111 -9 -93 -26 14 -12 157 -60 179
-60 11 0 48 -3 83 -6 l62 -6 51 51 c27 28 59 51 69 51 10 0 22 5 25 10 8 14
-39 12 -98 -4z"/>
<path d="M4365 3378 c-95 -60 -141 -70 -360 -78 -110 -4 -203 -6 -207 -3 -5 2
-8 0 -8 -6 0 -6 26 -18 58 -28 74 -23 352 -25 425 -4 52 15 122 71 150 120 24
41 8 40 -58 -1z"/>
<path d="M4542 4450 c-13 -6 -29 -25 -37 -45 -20 -47 -19 -49 14 -24 32 24 45
23 148 -7 37 -11 71 -30 100 -57 24 -22 45 -38 48 -35 11 11 -20 83 -51 118
-27 29 -47 41 -85 49 -59 13 -106 13 -137 1z"/>
<path d="M4728 2910 c-57 -89 -92 -165 -161 -350 -71 -193 -150 -430 -144
-436 2 -2 48 108 102 244 54 136 132 321 172 411 41 90 72 169 70 175 -2 6
-20 -14 -39 -44z"/>
</g>
</svg>
